# File produced by Open Asset Import Library (http://www.assimp.sf.net)
# (assimp v5.0.0)

mtllib result.mtl

# 128 vertex positions
v  0.63735843 -2.9527559 0.26333931
v  0.67423046 -0.15748033 0.13509944
v  0.67423046 -2.9527559 0.13509899
v  0.68573266 -2.9527559 0.0097307405
v  0.68573266 -0.15748031 0.0097311959
v  0.67423046 -0.1574803 -0.11563704
v  0.67423046 -2.9527559 -0.1156375
v  0.63735843 -0.15748027 -0.24387737
v  0.63735843 -2.9527559 -0.24387781
v  0.57342637 -0.15748025 -0.3672834
v  0.57342637 -2.9527559 -0.36728385
v  0.48393613 -0.15748024 -0.47744867
v  0.48393613 -2.9527559 -0.47744912
v  0.37377086 -0.15748022 -0.56693894
v  0.37377086 -2.9527559 -0.56693941
v  0.25036481 -0.15748021 -0.63087094
v  0.25036481 -2.9527559 -0.63087142
v  0.1221245 -0.15748021 -0.66774297
v  0.1221245 -2.9527559 -0.66774344
v  -0.0032437406 -0.15748021 -0.67924517
v  -0.0032437406 -2.9527559 -0.67924565
v  -0.12861198 -0.15748021 -0.66774297
v  -0.12861198 -2.9527559 -0.66774344
v  -0.2568523 -0.15748021 -0.63087094
v  -0.2568523 -2.9527559 -0.63087142
v  -0.38025832 -0.15748022 -0.56693894
v  -0.38025832 -2.9527559 -0.56693941
v  -0.49042362 -0.15748024 -0.47744867
v  -0.49042362 -2.9527559 -0.47744912
v  -0.57991385 -0.15748025 -0.3672834
v  -0.57991385 -2.9527559 -0.36728385
v  -0.64384592 -0.15748027 -0.24387737
v  -0.64384592 -2.9527559 -0.24387781
v  -0.68071789 -0.1574803 -0.11563704
v  -0.68071789 -2.9527559 -0.1156375
v  -0.69222009 -0.15748031 0.0097311959
v  -0.69222009 -2.9527559 0.0097307405
v  -0.68071789 -0.15748033 0.13509944
v  -0.68071789 -2.9527559 0.13509899
v  -0.64384592 -0.15748036 0.26333976
v  -0.64384592 -2.9527559 0.26333931
v  -0.57991385 -0.15748037 0.38674578
v  -0.57991385 -2.9527559 0.38674533
v  -0.49042362 -0.15748039 0.49691105
v  -0.49042362 -2.9527559 0.4969106
v  -0.38025832 -0.1574804 0.58640134
v  -0.38025832 -2.9527559 0.58640087
v  -0.2568523 -0.15748042 0.6503334
v  -0.2568523 -2.9527559 0.65033293
v  -0.12861198 -0.15748043 0.68720537
v  -0.12861198 -2.9527559 0.6872049
v  -0.0032437406 -0.15748043 0.69870758
v  -0.0032437406 -2.9527559 0.6987071
v  0.1221245 -0.15748043 0.68720537
v  0.1221245 -2.9527559 0.6872049
v  0.25036481 -0.15748042 0.6503334
v  0.25036481 -2.9527559 0.65033293
v  0.37377086 -0.1574804 0.58640134
v  0.37377086 -2.9527559 0.58640087
v  0.48393613 -0.15748039 0.49691105
v  0.48393613 -2.9527559 0.4969106
v  0.57342637 -0.15748037 0.38674578
v  0.57342637 -2.9527559 0.38674533
v  0.63735843 -0.15748036 0.26333976
v  -0.73554337 2.2175801e-08 -0.13611409
v  -0.7480315 -2.9527559 -4.81065e-07
v  -0.7480315 2.9849493e-23 -1.8321488e-16
v  -0.73554337 -2.2175801e-08 0.13611409
v  -0.73554337 -2.9527559 0.13611361
v  -0.69551092 -2.9527559 0.27534595
v  -0.69551092 -4.4859629e-08 0.27534643
v  -0.62609899 -2.9527559 0.40932965
v  -0.62609899 -6.6688344e-08 0.40933013
v  -0.52893811 -2.9527559 0.52893764
v  -0.52893811 -8.6174957e-08 0.52893811
v  -0.40933013 -2.9527559 0.62609851
v  -0.40933013 -1.0200448e-07 0.62609899
v  -0.27534643 -2.9527559 0.69551045
v  -0.27534643 -1.1331311e-07 0.69551092
v  -0.13611409 -2.9527562 0.73554289
v  -0.13611409 -1.1983524e-07 0.73554337
v  -4.607459e-16 -2.9527562 0.74803102
v  -2.290186e-16 -1.218698e-07 0.7480315
v  0.13611409 -2.9527562 0.73554289
v  0.13611409 -1.1983524e-07 0.73554337
v  0.27534643 -2.9527559 0.69551045
v  0.27534643 -1.1331311e-07 0.69551092
v  0.40933013 -2.9527559 0.62609851
v  0.40933013 -1.0200448e-07 0.62609899
v  0.52893811 -2.9527559 0.52893764
v  0.52893811 -8.6174957e-08 0.52893811
v  0.62609899 -2.9527559 0.40932965
v  0.62609899 -6.6688344e-08 0.40933013
v  0.69551092 -2.9527559 0.27534595
v  0.69551092 -4.4859629e-08 0.27534643
v  0.73554337 -2.9527559 0.13611361
v  0.73554337 -2.2175801e-08 0.13611409
v  0.7480315 -2.9527559 -4.81065e-07
v  0.7480315 -1.4924747e-23 9.1607434e-17
v  0.73554337 -2.9527559 -0.13611457
v  0.73554337 2.2175801e-08 -0.13611409
v  0.69551092 -2.9527559 -0.2753469
v  0.69551092 4.4859629e-08 -0.27534643
v  0.62609899 -2.9527559 -0.40933061
v  0.62609899 6.6688344e-08 -0.40933013
v  0.52893811 -2.9527559 -0.52893859
v  0.52893811 8.6174957e-08 -0.52893811
v  0.40933013 -2.9527559 -0.62609947
v  0.40933013 1.0200448e-07 -0.62609899
v  0.27534643 -2.9527559 -0.6955114
v  0.27534643 1.1331311e-07 -0.69551092
v  0.13611409 -2.9527557 -0.73554385
v  0.13611409 1.1983524e-07 -0.73554337
v  -2.290186e-16 -2.9527557 -0.74803197
v  1.3741115e-16 1.218698e-07 -0.7480315
v  -0.13611409 -2.9527557 -0.73554385
v  -0.13611409 1.1983524e-07 -0.73554337
v  -0.27534643 -2.9527559 -0.6955114
v  -0.27534643 1.1331311e-07 -0.69551092
v  -0.40933013 -2.9527559 -0.62609947
v  -0.40933013 1.0200448e-07 -0.62609899
v  -0.52893811 -2.9527559 -0.52893859
v  -0.52893811 8.6174957e-08 -0.52893811
v  -0.62609899 -2.9527559 -0.40933061
v  -0.62609899 6.6688344e-08 -0.40933013
v  -0.69551092 -2.9527559 -0.2753469
v  -0.69551092 4.4859629e-08 -0.27534643
v  -0.73554337 -2.9527559 -0.13611457

# 260 UV coordinates
vt 5.0788765 0.43549949 0
vt 0.46178699 0.21774974 0
vt 5.0788765 0.21774974 0
vt 5.0788765 0 0
vt 0.46178699 0 0
vt 0.46178699 6.7502418 0
vt 5.0788765 6.9679918 0
vt 0.46178699 6.9679918 0
vt 5.0788765 6.7502418 0
vt 0.46178699 6.5324922 0
vt 5.0788765 6.5324922 0
vt 0.46178699 6.3147426 0
vt 5.0788765 6.3147426 0
vt 0.46178699 6.096993 0
vt 5.0788765 6.096993 0
vt 0.46178699 5.8792429 0
vt 5.0788765 5.8792429 0
vt 0.46178699 5.6614933 0
vt 5.0788765 5.6614933 0
vt 0.46178699 5.4437437 0
vt 5.0788765 5.4437437 0
vt 0.46178699 5.2259936 0
vt 5.0788765 5.2259936 0
vt 0.46178699 5.008244 0
vt 5.0788765 5.008244 0
vt 0.46178699 4.7904944 0
vt 5.0788765 4.7904944 0
vt 0.46178699 4.5727444 0
vt 5.0788765 4.5727444 0
vt 0.46178699 4.3549948 0
vt 5.0788765 4.3549948 0
vt 0.46178699 4.1372452 0
vt 5.0788765 4.1372452 0
vt 0.46178699 3.9194953 0
vt 5.0788765 3.9194953 0
vt 0.46178699 3.7017455 0
vt 5.0788765 3.7017455 0
vt 0.46178699 3.4839959 0
vt 5.0788765 3.4839959 0
vt 0.46178699 3.2662461 0
vt 5.0788765 3.2662461 0
vt 0.46178699 3.0484965 0
vt 5.0788765 3.0484965 0
vt 0.46178699 2.8307467 0
vt 5.0788765 2.8307467 0
vt 0.46178699 2.6129968 0
vt 5.0788765 2.6129968 0
vt 0.46178699 2.3952472 0
vt 5.0788765 2.3952472 0
vt 0.46178699 2.1774974 0
vt 5.0788765 2.1774974 0
vt 0.46178699 1.9597477 0
vt 5.0788765 1.9597477 0
vt 0.46178699 1.741998 0
vt 5.0788765 1.741998 0
vt 0.46178699 1.5242482 0
vt 5.0788765 1.5242482 0
vt 0.46178699 1.3064984 0
vt 5.0788765 1.3064984 0
vt 0.46178699 1.0887487 0
vt 5.0788765 1.0887487 0
vt 0.46178699 0.87099898 0
vt 5.0788765 0.87099898 0
vt 0.46178699 0.6532492 0
vt 5.0788765 0.6532492 0
vt 0.46178699 0.43549949 0
vt 0.93100333 2.2570963 0
vt 1.13808 2.2760949 0
vt 0.71918273 2.196193 0
vt 0.079966992 1.5569773 0
vt 0.18556657 1.7608129 0
vt 0.019063771 1.3451567 0
vt 0.33338189 1.9427781 0
vt 0.51534712 2.0905933 0
vt 6.5029431e-05 1.13808 0
vt 0.019063771 0.93100333 0
vt 0.079966992 0.71918273 0
vt 0.18556657 0.51534712 0
vt 0.33338189 0.33338189 0
vt 0.51534712 0.18556657 0
vt 0.71918273 0.079966992 0
vt 0.93100333 0.019063771 0
vt 1.13808 6.5029431e-05 0
vt 1.3451567 0.019063771 0
vt 1.5569773 0.079966992 0
vt 1.7608129 0.18556657 0
vt 1.9427781 0.33338189 0
vt 2.0905933 0.51534712 0
vt 2.196193 0.71918273 0
vt 2.2570963 0.93100333 0
vt 2.2760949 1.13808 0
vt 2.2570963 1.3451567 0
vt 2.196193 1.5569773 0
vt 2.0905933 1.7608129 0
vt 1.9427781 1.9427781 0
vt 1.7608129 2.0905933 0
vt 1.5569773 2.196193 0
vt 1.3451567 2.2570963 0
vt 5.365006 0.236414 0
vt 0.48779875 0 0
vt 5.365006 8.3827087e-16 0
vt 0.48779875 7.565248 0
vt 5.365006 7.3288341 0
vt 5.365006 7.565248 0
vt 0.48779875 7.3288341 0
vt 0.48779875 7.0924201 0
vt 5.365006 7.0924201 0
vt 0.48779875 6.8560061 0
vt 5.365006 6.8560061 0
vt 0.48779875 6.6195922 0
vt 5.365006 6.6195922 0
vt 0.48779875 6.3831782 0
vt 5.365006 6.3831782 0
vt 0.48779875 6.1467643 0
vt 5.365006 6.1467643 0
vt 0.48779875 5.9103503 0
vt 5.365006 5.9103503 0
vt 0.48779875 5.6739359 0
vt 5.365006 5.6739359 0
vt 0.48779875 5.4375219 0
vt 5.365006 5.4375219 0
vt 0.48779875 5.201108 0
vt 5.365006 5.201108 0
vt 0.48779875 4.964694 0
vt 5.365006 4.964694 0
vt 0.48779875 4.7282801 0
vt 5.365006 4.7282801 0
vt 0.48779875 4.4918661 0
vt 5.365006 4.4918661 0
vt 0.48779875 4.2554522 0
vt 5.365006 4.2554522 0
vt 0.48779875 4.0190382 0
vt 5.365006 4.0190382 0
vt 0.48779875 3.782624 0
vt 5.365006 3.782624 0
vt 0.48779875 3.5462101 0
vt 5.365006 3.5462101 0
vt 0.48779875 3.3097961 0
vt 5.365006 3.3097961 0
vt 0.48779875 3.0733821 0
vt 5.365006 3.0733821 0
vt 0.48779875 2.8369679 0
vt 5.365006 2.8369679 0
vt 0.48779875 2.600554 0
vt 5.365006 2.600554 0
vt 0.48779875 2.36414 0
vt 5.365006 2.36414 0
vt 0.48779875 2.1277261 0
vt 5.365006 2.1277261 0
vt 0.48779875 1.891312 0
vt 5.365006 1.891312 0
vt 0.48779875 1.654898 0
vt 5.365006 1.654898 0
vt 0.48779875 1.418484 0
vt 5.365006 1.418484 0
vt 0.48779875 1.18207 0
vt 5.365006 1.18207 0
vt 0.48779875 0.945656 0
vt 5.365006 0.945656 0
vt 0.48779875 0.70924199 0
vt 5.365006 0.70924199 0
vt 0.48779875 0.472828 0
vt 5.365006 0.472828 0
vt 0.48779875 0.236414 0
vt 1.0107981 1.214932 0
vt 1.4604503 1.214932 0
vt 1.2356242 1.2355591 0
vt 0.020692233 0.22482611 0
vt 0.20146671 0.67611003 0
vt 0.086815737 0.45480278 0
vt 0.36195192 0.87367225 0
vt 0.55951416 1.0341574 0
vt 6.5029431e-05 3.8234329e-16 0
vt 0.78082138 1.1488085 0
vt 0.020692233 -0.22482611 0
vt 0.086815737 -0.45480278 0
vt 0.20146671 -0.67611003 0
vt 0.36195192 -0.87367225 0
vt 0.55951416 -1.0341574 0
vt 0.78082138 -1.1488085 0
vt 1.0107981 -1.214932 0
vt 1.2356242 -1.2355591 0
vt 1.4604503 -1.214932 0
vt 1.6904269 -1.1488085 0
vt 1.9117342 -1.0341574 0
vt 2.1092963 -0.87367225 0
vt 2.2697816 -0.67611003 0
vt 2.3844326 -0.45480278 0
vt 2.450556 -0.22482611 0
vt 2.4711833 -7.1593766e-17 0
vt 2.450556 0.22482611 0
vt 2.3844326 0.45480278 0
vt 2.2697816 0.67611003 0
vt 2.1092963 0.87367225 0
vt 1.9117342 1.0341574 0
vt 1.6904269 1.1488085 0
vt -0.87367225 0.87367225 0
vt -0.95787126 0.6388064 0
vt -0.81005597 0.82077163 0
vt -0.42425513 1.0741866 0
vt -0.22482611 1.214932 0
vt -0.45480278 1.1488085 0
vt -0.21243452 1.1350898 0
vt -0.67611003 1.0341574 0
vt -0.62809074 0.96858698 0
vt -5.3000493e-16 1.2355591 0
vt -0.0053578406 1.1540885 0
vt 0.22482611 1.214932 0
vt 0.20171884 1.1350898 0
vt 0.41353947 1.0741866 0
vt 0.45480278 1.1488085 0
vt 0.61737508 0.96858698 0
vt 0.67611003 1.0341574 0
vt 0.79934025 0.82077163 0
vt 0.87367225 0.87367225 0
vt 0.94715559 0.6388064 0
vt 1.0341574 0.67611003 0
vt 1.0527552 0.43497083 0
vt 1.1488085 0.45480278 0
vt 1.1136584 0.22315021 0
vt 1.214932 0.22482611 0
vt 1.1326572 0.016073521 0
vt 1.2355591 7.9718585e-17 0
vt 1.1136584 -0.19100316 0
vt 1.214932 -0.22482611 0
vt 1.0527552 -0.40282378 0
vt 1.1488085 -0.45480278 0
vt 0.94715559 -0.60665935 0
vt 1.0341574 -0.67611003 0
vt 0.87367225 -0.87367225 0
vt 0.79934025 -0.78862458 0
vt 0.67611003 -1.0341574 0
vt 0.61737508 -0.93643993 0
vt 0.45480278 -1.1488085 0
vt 0.41353947 -1.0420395 0
vt 0.22482611 -1.214932 0
vt 0.20171884 -1.1029427 0
vt -1.4724994e-16 -1.2355591 0
vt -0.0053578406 -1.1219414 0
vt -0.22482611 -1.214932 0
vt -0.21243452 -1.1029427 0
vt -0.45480278 -1.1488085 0
vt -0.42425513 -1.0420395 0
vt -0.67611003 -1.0341574 0
vt -0.62809074 -0.93643993 0
vt -0.87367225 -0.87367225 0
vt -0.81005597 -0.78862458 0
vt -1.0341574 -0.67611003 0
vt -0.95787126 -0.60665935 0
vt -1.1488085 -0.45480278 0
vt -1.0634708 -0.40282378 0
vt -1.214932 -0.22482611 0
vt -1.124374 -0.19100316 0
vt -1.2355591 5.3365564e-16 0
vt -1.1433728 0.016073521 0
vt -1.214932 0.22482611 0
vt -1.124374 0.22315021 0
vt -1.1488085 0.45480278 0
vt -1.0634708 0.43497083 0
vt -1.0341574 0.67611003 0

# 49 vertex normals
vn -0.92978829 5.997024e-08 -0.36809471
vn -0.98330539 2.9645546e-08 -0.18196306
vn -1 -0 0
vn -0.98330539 -2.9645546e-08 0.18196306
vn -1 -1.8563811e-23 1.1394385e-16
vn -1 -2.6221386e-22 1.609457e-15
vn -0.92978829 -5.997024e-08 0.36809471
vn -0.83699548 -8.9151783e-08 0.54720974
vn -0.70710677 -1.1520232e-07 0.70710677
vn -0.54720974 -1.3636388e-07 0.83699548
vn -0.36809471 -1.5148174e-07 0.92978829
vn -0.18196306 -1.6020078e-07 0.98330539
vn -4.3468255e-17 -1.6292068e-07 1
vn 3.4183155e-16 -1.6292068e-07 1
vn 0.18196306 -1.6020078e-07 0.98330539
vn 0.36809471 -1.5148174e-07 0.92978829
vn 0.54720974 -1.3636388e-07 0.83699548
vn 0.70710677 -1.1520232e-07 0.70710677
vn 0.83699548 -8.9151783e-08 0.54720974
vn 0.92978829 -5.997024e-08 0.36809471
vn 0.98330539 -2.9645546e-08 0.18196306
vn 1 2.787172e-18 2.8239526e-17
vn 1 1.8563811e-23 -1.1394385e-16
vn 0.98330539 2.9645546e-08 -0.18196306
vn 0.92978829 5.997024e-08 -0.36809471
vn 0.83699548 8.9151783e-08 -0.54720974
vn 0.70710677 1.1520232e-07 -0.70710677
vn 0.54720974 1.3636388e-07 -0.83699548
vn 0.36809471 1.5148174e-07 -0.92978829
vn 0.18196306 1.6020078e-07 -0.98330539
vn -2.278877e-16 1.6292068e-07 -1
vn -3.4183155e-16 1.6292068e-07 -1
vn -0.18196306 1.6020078e-07 -0.98330539
vn -0.36809471 1.5148174e-07 -0.92978829
vn -0.54720974 1.3636388e-07 -0.83699548
vn -0.70710677 1.1520232e-07 -0.70710677
vn -0.83699548 8.9151783e-08 -0.54720974
vn 0 -1 -1.6292068e-07
vn -1 -1.7098246e-23 1.0494828e-16
vn -1 -6.9945483e-18 -3.1484485e-16
vn -1 -2.6074827e-22 1.6004613e-15
vn -1 -3.4196492e-23 2.0989656e-16
vn 3.4108193e-16 -1.6292068e-07 1
vn 2.0989656e-16 -1.6292068e-07 1
vn 1 5.7706583e-23 -3.5420046e-16
vn 1 5.1294737e-23 -3.1484485e-16
vn -1.1806682e-16 1.6292068e-07 -1
vn 3.1484485e-16 1.6292068e-07 -1
vn 0 1 1.6292068e-07

# Mesh 'Inner Cup' with 188 faces
g Inner Cup
usemtl Metal/Aluminum Aluminum - Polished
f  1/1/1 2/2/2 3/3/2
f  4/4/3 2/2/2 5/5/3
f  3/3/2 2/2/2 4/4/3
f  6/6/4 4/7/5 5/8/6
f  6/6/4 7/9/4 4/7/5
f  8/10/7 7/9/4 6/6/4
f  8/10/7 9/11/7 7/9/4
f  10/12/8 9/11/7 8/10/7
f  10/12/8 11/13/8 9/11/7
f  12/14/9 11/13/8 10/12/8
f  12/14/9 13/15/9 11/13/8
f  14/16/10 13/15/9 12/14/9
f  14/16/10 15/17/10 13/15/9
f  16/18/11 15/17/10 14/16/10
f  16/18/11 17/19/11 15/17/10
f  18/20/12 17/19/11 16/18/11
f  18/20/12 19/21/12 17/19/11
f  20/22/13 19/21/12 18/20/12
f  20/22/13 21/23/14 19/21/12
f  22/24/15 21/23/14 20/22/13
f  22/24/15 23/25/15 21/23/14
f  24/26/16 23/25/15 22/24/15
f  24/26/16 25/27/16 23/25/15
f  26/28/17 25/27/16 24/26/16
f  26/28/17 27/29/17 25/27/16
f  28/30/18 27/29/17 26/28/17
f  28/30/18 29/31/18 27/29/17
f  30/32/19 29/31/18 28/30/18
f  30/32/19 31/33/19 29/31/18
f  32/34/20 31/33/19 30/32/19
f  32/34/20 33/35/20 31/33/19
f  34/36/21 33/35/20 32/34/20
f  34/36/21 35/37/21 33/35/20
f  36/38/22 35/37/21 34/36/21
f  36/38/22 37/39/23 35/37/21
f  38/40/24 37/39/23 36/38/22
f  38/40/24 39/41/24 37/39/23
f  40/42/25 39/41/24 38/40/24
f  40/42/25 41/43/25 39/41/24
f  42/44/26 41/43/25 40/42/25
f  42/44/26 43/45/26 41/43/25
f  44/46/27 43/45/26 42/44/26
f  44/46/27 45/47/27 43/45/26
f  46/48/28 45/47/27 44/46/27
f  46/48/28 47/49/28 45/47/27
f  48/50/29 47/49/28 46/48/28
f  48/50/29 49/51/29 47/49/28
f  50/52/30 49/51/29 48/50/29
f  50/52/30 51/53/30 49/51/29
f  52/54/31 51/53/30 50/52/30
f  52/54/31 53/55/32 51/53/30
f  54/56/33 53/55/32 52/54/31
f  54/56/33 55/57/33 53/55/32
f  56/58/34 55/57/33 54/56/33
f  56/58/34 57/59/34 55/57/33
f  58/60/35 57/59/34 56/58/34
f  58/60/35 59/61/35 57/59/34
f  60/62/36 59/61/35 58/60/35
f  60/62/36 61/63/36 59/61/35
f  62/64/37 61/63/36 60/62/36
f  62/64/37 63/65/37 61/63/36
f  64/66/1 63/65/37 62/64/37
f  64/66/1 1/1/1 63/65/37
f  2/2/2 1/1/1 64/66/1
f  54/67/38 52/68/38 56/69/38
f  64/70/38 62/71/38 2/72/38
f  62/71/38 60/73/38 2/72/38
f  60/73/38 58/74/38 2/72/38
f  2/72/38 58/74/38 5/75/38
f  58/74/38 56/69/38 5/75/38
f  5/75/38 56/69/38 6/76/38
f  6/76/38 56/69/38 8/77/38
f  8/77/38 56/69/38 10/78/38
f  10/78/38 56/69/38 12/79/38
f  12/79/38 56/69/38 14/80/38
f  14/80/38 56/69/38 16/81/38
f  16/81/38 56/69/38 18/82/38
f  18/82/38 56/69/38 20/83/38
f  20/83/38 56/69/38 22/84/38
f  22/84/38 56/69/38 24/85/38
f  24/85/38 56/69/38 26/86/38
f  26/86/38 56/69/38 28/87/38
f  28/87/38 56/69/38 30/88/38
f  30/88/38 56/69/38 32/89/38
f  32/89/38 56/69/38 34/90/38
f  34/90/38 56/69/38 36/91/38
f  36/91/38 56/69/38 38/92/38
f  38/92/38 56/69/38 40/93/38
f  40/93/38 56/69/38 42/94/38
f  42/94/38 56/69/38 44/95/38
f  44/95/38 56/69/38 46/96/38
f  46/96/38 56/69/38 48/97/38
f  48/97/38 56/69/38 50/98/38
f  50/98/38 56/69/38 52/68/38
f  65/99/2 66/100/39 67/101/40
f  66/102/41 68/103/4 67/104/42
f  69/105/4 68/103/4 66/102/41
f  70/106/7 68/103/4 69/105/4
f  70/106/7 71/107/7 68/103/4
f  72/108/8 71/107/7 70/106/7
f  72/108/8 73/109/8 71/107/7
f  74/110/9 73/109/8 72/108/8
f  74/110/9 75/111/9 73/109/8
f  76/112/10 75/111/9 74/110/9
f  76/112/10 77/113/10 75/111/9
f  78/114/11 77/113/10 76/112/10
f  78/114/11 79/115/11 77/113/10
f  80/116/12 79/115/11 78/114/11
f  80/116/12 81/117/12 79/115/11
f  82/118/43 81/117/12 80/116/12
f  82/118/43 83/119/44 81/117/12
f  84/120/15 83/119/44 82/118/43
f  84/120/15 85/121/15 83/119/44
f  86/122/16 85/121/15 84/120/15
f  86/122/16 87/123/16 85/121/15
f  88/124/17 87/123/16 86/122/16
f  88/124/17 89/125/17 87/123/16
f  90/126/18 89/125/17 88/124/17
f  90/126/18 91/127/18 89/125/17
f  92/128/19 91/127/18 90/126/18
f  92/128/19 93/129/19 91/127/18
f  94/130/20 93/129/19 92/128/19
f  94/130/20 95/131/20 93/129/19
f  96/132/21 95/131/20 94/130/20
f  96/132/21 97/133/21 95/131/20
f  98/134/45 97/133/21 96/132/21
f  98/134/45 99/135/46 97/133/21
f  100/136/24 99/135/46 98/134/45
f  100/136/24 101/137/24 99/135/46
f  102/138/25 101/137/24 100/136/24
f  102/138/25 103/139/25 101/137/24
f  104/140/26 103/139/25 102/138/25
f  104/140/26 105/141/26 103/139/25
f  106/142/27 105/141/26 104/140/26
f  106/142/27 107/143/27 105/141/26
f  108/144/28 107/143/27 106/142/27
f  108/144/28 109/145/28 107/143/27
f  110/146/29 109/145/28 108/144/28
f  110/146/29 111/147/29 109/145/28
f  112/148/30 111/147/29 110/146/29
f  112/148/30 113/149/30 111/147/29
f  114/150/47 113/149/30 112/148/30
f  114/150/47 115/151/48 113/149/30
f  116/152/33 115/151/48 114/150/47
f  116/152/33 117/153/33 115/151/48
f  118/154/34 117/153/33 116/152/33
f  118/154/34 119/155/34 117/153/33
f  120/156/35 119/155/34 118/154/34
f  120/156/35 121/157/35 119/155/34
f  122/158/36 121/157/35 120/156/35
f  122/158/36 123/159/36 121/157/35
f  124/160/37 123/159/36 122/158/36
f  124/160/37 125/161/37 123/159/36
f  126/162/1 125/161/37 124/160/37
f  126/162/1 127/163/1 125/161/37
f  128/164/2 127/163/1 126/162/1
f  128/164/2 65/99/2 127/163/1
f  66/100/39 65/99/2 128/164/2
f  85/165/49 81/166/49 83/167/49
f  97/168/49 93/169/49 95/170/49
f  97/168/49 91/171/49 93/169/49
f  97/168/49 89/172/49 91/171/49
f  99/173/49 89/172/49 97/168/49
f  99/173/49 87/174/49 89/172/49
f  101/175/49 87/174/49 99/173/49
f  103/176/49 87/174/49 101/175/49
f  105/177/49 87/174/49 103/176/49
f  107/178/49 87/174/49 105/177/49
f  109/179/49 87/174/49 107/178/49
f  111/180/49 87/174/49 109/179/49
f  113/181/49 87/174/49 111/180/49
f  115/182/49 87/174/49 113/181/49
f  117/183/49 87/174/49 115/182/49
f  117/183/49 85/165/49 87/174/49
f  119/184/49 85/165/49 117/183/49
f  121/185/49 85/165/49 119/184/49
f  123/186/49 85/165/49 121/185/49
f  125/187/49 85/165/49 123/186/49
f  127/188/49 85/165/49 125/187/49
f  65/189/49 85/165/49 127/188/49
f  67/190/49 85/165/49 65/189/49
f  68/191/49 85/165/49 67/190/49
f  71/192/49 85/165/49 68/191/49
f  73/193/49 85/165/49 71/192/49
f  75/194/49 85/165/49 73/193/49
f  77/195/49 85/165/49 75/194/49
f  79/196/49 85/165/49 77/195/49
f  81/166/49 85/165/49 79/196/49

# Mesh 'Inner Cup' with 64 faces
g Inner Cup
usemtl Miscellaneous Default
f  74/197/38 43/198/38 45/199/38
f  49/200/38 80/201/38 78/202/38
f  51/203/38 80/201/38 49/200/38
f  76/204/38 49/200/38 78/202/38
f  76/204/38 47/205/38 49/200/38
f  51/203/38 82/206/38 80/201/38
f  53/207/38 82/206/38 51/203/38
f  74/197/38 47/205/38 76/204/38
f  74/197/38 45/199/38 47/205/38
f  53/207/38 84/208/38 82/206/38
f  55/209/38 84/208/38 53/207/38
f  57/210/38 84/208/38 55/209/38
f  57/210/38 86/211/38 84/208/38
f  59/212/38 86/211/38 57/210/38
f  59/212/38 88/213/38 86/211/38
f  61/214/38 88/213/38 59/212/38
f  61/214/38 90/215/38 88/213/38
f  63/216/38 90/215/38 61/214/38
f  63/216/38 92/217/38 90/215/38
f  1/218/38 92/217/38 63/216/38
f  1/218/38 94/219/38 92/217/38
f  3/220/38 94/219/38 1/218/38
f  3/220/38 96/221/38 94/219/38
f  4/222/38 96/221/38 3/220/38
f  4/222/38 98/223/38 96/221/38
f  7/224/38 98/223/38 4/222/38
f  7/224/38 100/225/38 98/223/38
f  9/226/38 100/225/38 7/224/38
f  9/226/38 102/227/38 100/225/38
f  11/228/38 102/227/38 9/226/38
f  11/228/38 104/229/38 102/227/38
f  11/228/38 106/230/38 104/229/38
f  13/231/38 106/230/38 11/228/38
f  13/231/38 108/232/38 106/230/38
f  15/233/38 108/232/38 13/231/38
f  15/233/38 110/234/38 108/232/38
f  17/235/38 110/234/38 15/233/38
f  17/235/38 112/236/38 110/234/38
f  19/237/38 112/236/38 17/235/38
f  19/237/38 114/238/38 112/236/38
f  21/239/38 114/238/38 19/237/38
f  21/239/38 116/240/38 114/238/38
f  23/241/38 116/240/38 21/239/38
f  23/241/38 118/242/38 116/240/38
f  25/243/38 118/242/38 23/241/38
f  25/243/38 120/244/38 118/242/38
f  27/245/38 120/244/38 25/243/38
f  27/245/38 122/246/38 120/244/38
f  29/247/38 122/246/38 27/245/38
f  29/247/38 124/248/38 122/246/38
f  31/249/38 124/248/38 29/247/38
f  31/249/38 126/250/38 124/248/38
f  33/251/38 126/250/38 31/249/38
f  33/251/38 128/252/38 126/250/38
f  35/253/38 128/252/38 33/251/38
f  35/253/38 66/254/38 128/252/38
f  37/255/38 66/254/38 35/253/38
f  37/255/38 69/256/38 66/254/38
f  39/257/38 69/256/38 37/255/38
f  39/257/38 70/258/38 69/256/38
f  41/259/38 70/258/38 39/257/38
f  41/259/38 72/260/38 70/258/38
f  43/198/38 72/260/38 41/259/38
f  43/198/38 74/197/38 72/260/38

